<?xml version="1.0" encoding="UTF-8" standalone="no"?>
<svg
   xmlns:dc="http://purl.org/dc/elements/1.1/"
   xmlns:cc="http://creativecommons.org/ns#"
   xmlns:rdf="http://www.w3.org/1999/02/22-rdf-syntax-ns#"
   xmlns:svg="http://www.w3.org/2000/svg"
   xmlns="http://www.w3.org/2000/svg"
   xmlns:sodipodi="http://sodipodi.sourceforge.net/DTD/sodipodi-0.dtd"
   xmlns:inkscape="http://www.inkscape.org/namespaces/inkscape"
   id="svg4153"
   width="22"
   height="22"
   version="1.1"
   viewBox="0 0 22 22"
   sodipodi:docname="close.svg"
   inkscape:version="1.0.2 (e86c870879, 2021-01-15)">
  <style id="current-color-scheme" type="text/css">
      .ColorScheme-NegativeText {
        color:#da4453;
      }
      .ColorScheme-Text {
        color:#232629;
      }
      .ColorScheme-Accent {
        color:#D4AF37;
      }
  </style>
  <defs id="defs9" />
  <g id="hover">
    <circle
       r="11"
       cy="11"
       cx="11"
       id="circle4151-5"
       style="opacity:0.1;fill:currentColor;fill-opacity:1;stroke:none;stroke-width:0;stroke-miterlimit:4;stroke-dasharray:none;stroke-opacity:1"
       class="ColorScheme-Text" />
    <path
       d="M 14.743589,6.5384615 11,10.282051 7.2564102,6.5384615 6.5384615,7.2564102 10.282051,11 6.5384615,14.743589 7.2564102,15.461538 11,11.717949 14.743589,15.461538 15.461538,14.743589 11.717949,11 15.461538,7.2564102 Z"
       id="path4153"
       style="fill:currentColor;fill-opacity:1;stroke:none;stroke-width:1.28205"
       class="ColorScheme-NegativeText"
       inkscape:connector-curvature="0" />
  </g>
  <g id="active">
    <rect
       id="rect4143"
       width="22"
       height="22"
       x="22"
       y="0"
       style="opacity:1;fill:none;fill-opacity:1;stroke:none;stroke-width:0;stroke-miterlimit:4;stroke-dasharray:none;stroke-opacity:1" />
    <path
       d="M 36.743589,6.5384615 33,10.282051 29.25641,6.5384615 28.538462,7.2564102 32.282051,11 28.538462,14.743589 29.25641,15.461538 33,11.717949 36.743589,15.461538 37.461538,14.743589 33.717949,11 37.461538,7.2564102 Z"
       id="path4145"
       style="fill:currentColor;fill-opacity:1;stroke:none;stroke-width:1.28205"
       class="ColorScheme-NegativeText"
       inkscape:connector-curvature="0" />
  </g>
  <g id="deactivated">
    <rect
       id="rect4147"
       width="22"
       height="22"
       x="44"
       y="0"
       style="opacity:1;fill:none;fill-opacity:1;stroke:none;stroke-width:0;stroke-miterlimit:4;stroke-dasharray:none;stroke-opacity:1" />
    <path
       d="M 58.743589,6.5384615 55,10.282051 51.25641,6.5384615 50.538462,7.2564102 54.282051,11 50.538462,14.743589 51.25641,15.461538 55,11.717949 58.743589,15.461538 59.461538,14.743589 55.717949,11 59.461538,7.2564102 Z"
       id="path4149"
       style="opacity:0.5;fill:currentColor;fill-opacity:0.5;stroke:none;stroke-width:1.28205"
       class="ColorScheme-NegativeText"
       inkscape:connector-curvature="0" />
  </g>
  <g id="inactive">
    <rect
       id="rect4151"
       width="22"
       height="22"
       x="66"
       y="0"
       style="opacity:1;fill:none;fill-opacity:1;stroke:none;stroke-width:0;stroke-miterlimit:4;stroke-dasharray:none;stroke-opacity:1" />
    <path
       d="M 80.743589,6.5384615 77,10.282051 73.25641,6.5384615 72.538462,7.2564102 76.282051,11 72.538462,14.743589 73.25641,15.461538 77,11.717949 80.743589,15.461538 81.461538,14.743589 77.717949,11 81.461538,7.2564102 Z"
       id="path4153-3"
       style="opacity:0.5;fill:currentColor;fill-opacity:0.5;stroke:none;stroke-width:1.28205"
       class="ColorScheme-NegativeText"
       inkscape:connector-curvature="0" />
  </g>
  <g id="pressed">
    <circle
       r="11"
       cy="11"
       cx="11"
       id="circle4147"
       style="opacity:0.15;fill:#23262f;fill-opacity:1;stroke:none;stroke-width:0;stroke-miterlimit:4;stroke-dasharray:none;stroke-opacity:1" />
    <circle
       r="11"
       cy="11"
       cx="11"
       id="circle4149"
       style="opacity:0.2;fill:currentColor;fill-opacity:1;stroke:none;stroke-width:0;stroke-miterlimit:4;stroke-dasharray:none;stroke-opacity:1"
       class="ColorScheme-NegativeText" />
    <path
       d="M 14.743589,6.5384615 11,10.282051 7.2564102,6.5384615 6.5384615,7.2564102 10.282051,11 6.5384615,14.743589 7.2564102,15.461538 11,11.717949 14.743589,15.461538 15.461538,14.743589 11.717949,11 15.461538,7.2564102 Z"
       id="path4151-6"
       style="fill:currentColor;fill-opacity:1;stroke:none;stroke-width:1.28205"
       class="ColorScheme-NegativeText"
       inkscape:connector-curvature="0" />
  </g>
  <rect
     id="normal-hint-compose-over-border"
     y="8"
     width="4"
     height="4"
     x="100"
     style="opacity:1;fill:#b74aff;fill-opacity:1;stroke:none;stroke-width:0;stroke-miterlimit:4;stroke-dasharray:none;stroke-opacity:1" />
</svg>
