<?xml version="1.0" encoding="UTF-8" standalone="no"?>
<svg
   id="svg4198"
   width="300"
   height="300"
   version="1.1"
   viewBox="0 0 300 300"
   sodipodi:docname="decoration.svg"
   inkscape:version="1.1 (c4e8f9ed74, 2021-05-24)"
   xmlns:inkscape="http://www.inkscape.org/namespaces/inkscape"
   xmlns:sodipodi="http://sodipodi.sourceforge.net/DTD/sodipodi-0.dtd"
   xmlns:xlink="http://www.w3.org/1999/xlink"
   xmlns="http://www.w3.org/2000/svg"
   xmlns:svg="http://www.w3.org/2000/svg"
   xmlns:rdf="http://www.w3.org/1999/02/22-rdf-syntax-ns#"
   xmlns:cc="http://creativecommons.org/ns#"
   xmlns:dc="http://purl.org/dc/elements/1.1/">
  <defs id="defs31">
    <linearGradient id="linearGradient5427">
      <stop id="stop5423" offset="0" style="stop-color:#D4AF37;stop-opacity:1" />
      <stop id="stop5425" offset="1" style="stop-color:#FFD700;stop-opacity:1" />
    </linearGradient>
    <linearGradient
       inkscape:collect="always"
       xlink:href="#linearGradient5427"
       id="linearGradient4260-5"
       x1="0"
       y1="21.045732"
       x2="43.621975"
       y2="21.045732"
       gradientUnits="userSpaceOnUse"
       gradientTransform="matrix(1.1813352,0,0,1,-10.441619,0)" />
  </defs>
  <style id="current-color-scheme" type="text/css">
      .ColorScheme-Text {
        color:#232627;
      }
      .ColorScheme-Background {
        color:#ffffff;
      }
      .ColorScheme-Accent {
        color:#D4AF37;
      }
      .ColorScheme-ButtonText {
        color:#232627;
      }
      .ColorScheme-PositiveText {
        color:#27ae60;
      }
      .ColorScheme-NeutralText {
        color:#FFD700;
      }
      .ColorScheme-NegativeText {
        color:#da4453;
      }
      </style>
  <metadata
     id="metadata59">
    <rdf:RDF>
      <cc:Work
         rdf:about="">
        <dc:format>image/svg+xml</dc:format>
        <dc:type
           rdf:resource="http://purl.org/dc/dcmitype/StillImage" />
      </cc:Work>
    </rdf:RDF>
  </metadata>
  <g
     id="decoration-topleft"
     transform="translate(-53.000196,-10)"
     style="fill:#f0f0f0;fill-opacity:1">
    <path
       d="m 95,38 h -8 c -5.539983,0 -10,-4.460017 -10,-10 v -8 h 2 v 8 c 0,4.507983 3.492017,8 8,8 h 8 z"
       id="path6174-6"
       sodipodi:nodetypes="csscssc"
       class="ColorScheme-Background"
       style="fill:currentColor;fill-opacity:1;stroke:none" />
    <path
       id="path6240"
       d="m 77,20 h 18 v 18 h -18 z"
       style="opacity:0.15;fill:currentColor;fill-opacity:1;stroke:none"
       class="ColorScheme-Text" />
  </g>
  <g
     id="decoration-left"
     transform="translate(-53.000196,-10)"
     style="fill:#f0f0f0;fill-opacity:1">
    <path
       id="path6252"
       d="m 77,48 h 2 v 32 h -2 z"
       class="ColorScheme-Background"
       style="fill:currentColor;fill-opacity:1;stroke:none"
       sodipodi:nodetypes="ccccc" />
    <path
       id="path6254"
       d="m 79,48 h 16 v 32 H 79 Z"
       style="opacity:0.15;fill:currentColor;fill-opacity:1;stroke:none"
       class="ColorScheme-Text"
       sodipodi:nodetypes="ccccc" />
  </g>
  <g
     id="decoration-bottomleft"
     transform="translate(-53.000196,-10)"
     style="fill:#f0f0f0;fill-opacity:1">
    <path
       id="path6258"
       d="m 95,90 h -8 c -4.507983,0 -8,-3.492017 -8,-8 v -2 h 2 v 2 c 0,3.323983 2.676017,6 6,6 h 8 z"
       class="ColorScheme-Background"
       style="fill:currentColor;fill-opacity:1;stroke:none"
       sodipodi:nodetypes="csscssc" />
    <path
       id="path6260"
       d="M 77,80 H 95 V 90 H 77 Z"
       style="opacity:0.15;fill:currentColor;fill-opacity:1;stroke:none"
       class="ColorScheme-Text"
       sodipodi:nodetypes="ccccc" />
  </g>
  <g
     id="decoration-bottom"
     transform="translate(-53.000196,-10)"
     style="fill:#f0f0f0;fill-opacity:1">
    <path
       id="path6264"
       d="m 95,88 h 32 v 2 H 95 Z"
       class="ColorScheme-Background"
       style="fill:currentColor;fill-opacity:1;stroke:none"
       sodipodi:nodetypes="ccccc" />
    <path
       id="path6266"
       d="m 95,80 h 32 v 8 H 95 Z"
       style="opacity:0.15;fill:currentColor;fill-opacity:1;stroke:none"
       class="ColorScheme-Text"
       sodipodi:nodetypes="ccccc" />
  </g>
  <g
     id="decoration-bottomright"
     transform="translate(-53.000196,-10)"
     style="fill:#f0f0f0;fill-opacity:1">
    <path
       id="path6270"
       d="m 127,90 h 8 c 3.324,0 6,-2.676017 6,-6 v -4 h -2 v 4 c 0,2.215983 -1.784,4 -4,4 h -8 z"
       class="ColorScheme-Background"
       style="fill:currentColor;fill-opacity:1;stroke:none"
       sodipodi:nodetypes="csscssc" />
    <path
       id="path6272"
       d="m 127,80 h 18 v 10 h -18 z"
       style="opacity:0.15;fill:currentColor;fill-opacity:1;stroke:none"
       class="ColorScheme-Text"
       sodipodi:nodetypes="ccccc" />
  </g>
  <g
     id="decoration-right"
     transform="translate(-53.000196,-10)"
     style="fill:#f0f0f0;fill-opacity:1">
    <path
       id="path6276"
       d="m 141,48 h 2 v 32 h -2 z"
       class="ColorScheme-Background"
       style="fill:currentColor;fill-opacity:1;stroke:none"
       sodipodi:nodetypes="ccccc" />
    <path
       id="path6278"
       d="m 127,48 h 14 v 32 h -14 z"
       style="opacity:0.15;fill:currentColor;fill-opacity:1;stroke:none"
       class="ColorScheme-Text"
       sodipodi:nodetypes="ccccc" />
  </g>
  <g
     id="decoration-topright"
     transform="translate(-53.000196,-10)"
     style="fill:#f0f0f0;fill-opacity:1">
    <path
       id="path6282"
       d="m 127,38 h 8 c 4.508,0 8,-3.492017 8,-8 v -8 h -2 v 8 c 0,3.323983 -2.676,6 -6,6 h -8 z"
       class="ColorScheme-Background"
       style="fill:currentColor;fill-opacity:1;stroke:none"
       sodipodi:nodetypes="csscssc" />
    <path
       id="path6284"
       d="m 127,20 h 18 v 18 h -18 z"
       style="opacity:0.15;fill:currentColor;fill-opacity:1;stroke:none"
       class="ColorScheme-Text" />
  </g>
  <g
     id="decoration-horizontal"
     transform="translate(-53.000196,-10)"
     style="fill:#f0f0f0;fill-opacity:1">
    <path
       transform="translate(0,-4)"
       d="m 95,24 h 32 v 2 H 95 Z"
       id="path6252-3"
       class="ColorScheme-Background"
       style="fill:currentColor;fill-opacity:1;stroke:none"
       sodipodi:nodetypes="ccccc" />
    <path
       id="path6254-6"
       d="m 95,20 h 32 v 16 H 95 Z"
       style="opacity:0.15;fill:currentColor;fill-opacity:1;stroke:none"
       class="ColorScheme-Text"
       sodipodi:nodetypes="ccccc" />
  </g>
  <g
     id="decoration-center"
     transform="translate(-53.000196,-10)"
     style="fill:#f0f0f0;fill-opacity:1">
    <path
       id="path6282-7"
       d="m 95,48 h 32 v 32 H 95 Z"
       style="opacity:0.15;fill:currentColor;fill-opacity:1;stroke:none"
       class="ColorScheme-Text"
       sodipodi:nodetypes="ccccc" />
  </g>
  <g
     id="decoration-inactive-top"
     transform="translate(-53.000196,90)"
     style="fill:#f0f0f0;fill-opacity:1">
    <path
       transform="translate(0,-4)"
       d="m 95,24 h 32 v 2 H 95 Z"
       id="path6252-3-5"
       class="ColorScheme-Background"
       style="fill:currentColor;fill-opacity:1;stroke:none"
       sodipodi:nodetypes="ccccc" />
    <path
       id="path6254-6-3"
       d="m 95,20 h 32 v 16 H 95 Z"
       style="opacity:0.075;fill:currentColor;fill-opacity:1;stroke:none"
       class="ColorScheme-Text"
       sodipodi:nodetypes="ccccc" />
  </g>
  
  <g
     id="decoration-top"
     transform="translate(-53.000196,-10)"
     style="fill:#f0f0f0;fill-opacity:1">
    <path
       transform="translate(0,-4)"
       d="m 95,24 h 32 v 2 H 95 Z"
       id="path6252-3-5-2"
       class="ColorScheme-Background"
       style="fill:currentColor;fill-opacity:1;stroke:none"
       sodipodi:nodetypes="ccccc" />
    <path
       id="path6254-6-3-9"
       d="m 95,20 h 32 v 16 H 95 Z"
       style="opacity:0.15;fill:currentColor;fill-opacity:1;stroke:none"
       class="ColorScheme-Text"
       sodipodi:nodetypes="ccccc" />
  </g>

  <rect id="hint-tile-center" x="77" y="50" width="10" height="10" fill="#D4AF37" opacity="0.75" />
  <rect id="hint-top-margin" x="77" y="5" width="10" height="16" fill="#D4AF37" opacity="0.75" />
  <rect id="hint-bottom-margin" x="77" y="85" width="10" height="8" fill="#D4AF37" opacity="0.75" />
  <rect id="hint-right-margin" x="130" y="50" width="14" height="10" fill="#D4AF37" opacity="0.75" />
  <rect id="hint-left-margin" x="40" y="50" width="16" height="10" fill="#D4AF37" opacity="0.75" />
  <rect id="hint-maximize-over-active" x="0" y="100" width="10" height="10" fill="#D4AF37" opacity="0.75" />
</svg>
